<svg xmlns="http://www.w3.org/2000/svg" viewBox="0 0 660.22 165.91"><defs><style>.cls-1,.cls-4,.cls-5{fill:none;stroke-miterlimit:10;}.cls-1,.cls-5{stroke:#c15472;}.cls-1{stroke-width:4px;}.cls-2{fill:#070a16;}.cls-3{fill:#812d61;}.cls-4{stroke:#812d61;}.cls-4,.cls-5{stroke-width:2px;}</style></defs><title>emotiscope</title><g id="Layer_7" data-name="Layer 7"><polygon class="cls-1" points="658.15 9.39 657.93 8.3 657.57 7.25 657.08 6.25 656.46 5.33 655.73 4.49 654.89 3.76 653.97 3.14 652.97 2.65 651.92 2.29 650.83 2.07 649.72 2 10.5 2 9.39 2.07 8.3 2.29 7.25 2.65 6.25 3.14 5.33 3.76 4.49 4.49 3.76 5.33 3.14 6.25 2.65 7.25 2.29 8.3 2.07 9.39 2 10.5 2 116.81 2.15 119.03 2.58 121.22 3.29 123.32 4.28 125.32 5.51 127.17 6.98 128.84 8.65 130.31 10.5 131.54 12.5 132.53 14.61 133.24 16.79 133.68 19.01 133.82 133.81 133.82 133.81 162.24 138.06 163.05 141.63 163.05 138.63 163.06 174.18 163.06 177.18 163.05 177.75 163.05 182 162.24 182 133.82 478.22 133.82 478.18 134.23 478.22 157.04 478.22 163.09 482.47 163.91 485.04 163.91 483.04 163.91 520.59 163.91 521.59 163.91 522.16 163.91 526.41 163.09 526.41 133.82 641.21 133.82 643.43 133.68 645.62 133.24 647.72 132.53 649.72 131.54 651.57 130.31 653.24 128.84 654.71 127.17 655.94 125.32 656.93 123.32 657.64 121.22 658.08 119.03 658.22 116.81 658.22 10.5 658.15 9.39"/></g><g id="_0" data-name="0"><g id="LINE"><polygon class="cls-2" points="133.81 133.82 19.01 133.82 16.79 133.68 14.61 133.24 12.5 132.53 10.5 131.54 8.65 130.31 6.98 128.84 5.51 127.17 4.28 125.32 3.29 123.32 2.58 121.22 2.15 119.03 2 116.81 2 10.5 2.07 9.39 2.29 8.3 2.65 7.25 3.14 6.25 3.76 5.33 4.49 4.49 5.33 3.76 6.25 3.14 7.25 2.65 8.3 2.29 9.39 2.07 10.5 2 649.72 2 650.83 2.07 651.92 2.29 652.97 2.65 653.97 3.14 654.89 3.76 655.73 4.49 656.46 5.33 657.08 6.25 657.57 7.25 657.93 8.3 658.15 9.39 658.22 10.5 658.22 116.81 658.08 119.03 657.64 121.22 656.93 123.32 655.94 125.32 654.71 127.17 653.24 128.84 651.57 130.31 649.72 131.54 647.72 132.53 645.62 133.24 643.43 133.68 641.21 133.82 526.41 133.82 478.22 133.82 182 133.82 133.81 133.82"/></g></g><g id="Layer_3" data-name="Layer 3"><g id="LINE-2" data-name="LINE"><polygon class="cls-3" points="649.72 84.2 649.72 116.8 649.64 117.91 649.43 119 649.07 120.06 648.58 121.05 647.96 121.98 647.23 122.81 646.39 123.55 645.47 124.17 644.47 124.66 643.41 125.02 642.32 125.23 641.21 125.31 526.41 125.31 478.22 125.31 182 125.31 133.81 125.31 19.01 125.31 17.9 125.23 16.81 125.02 15.75 124.66 14.76 124.17 13.83 123.55 12.99 122.81 12.99 122.82 12.26 121.98 11.64 121.06 11.15 120.06 10.79 119 10.58 117.91 10.5 116.8 10.5 84.2 649.72 84.2"/></g><g id="LINE-3" data-name="LINE"><rect class="cls-4" x="11.5" y="11.5" width="637.21" height="71.7"/></g></g><g id="Layer_5" data-name="Layer 5"><g id="LINE-4" data-name="LINE"><polygon class="cls-2" points="526.41 125.31 526.41 103.91 526.34 102.8 526.12 101.7 525.76 100.65 525.27 99.65 524.65 98.73 523.92 97.89 523.08 97.16 522.16 96.54 521.16 96.05 520.11 95.69 519.01 95.47 517.91 95.4 486.72 95.4 485.61 95.47 484.52 95.69 483.47 96.05 482.47 96.54 481.55 97.16 480.71 97.89 479.98 98.73 479.36 99.65 478.87 100.65 478.51 101.7 478.29 102.8 478.22 103.91 478.22 125.31 478.22 133.82 478.18 134.23 478.22 157.04 478.22 163.09 482.47 163.91 485.04 163.91 483.04 163.91 520.59 163.91 521.59 163.91 522.16 163.91 526.41 163.09 526.41 133.82 526.41 125.31"/></g><g id="LINE-5" data-name="LINE"><polygon class="cls-2" points="182 125.31 182 103.06 181.93 101.94 181.71 100.85 181.35 99.8 180.86 98.8 180.24 97.88 179.51 97.04 178.67 96.31 177.75 95.69 176.75 95.2 175.7 94.84 174.61 94.62 173.5 94.55 142.31 94.55 141.21 94.62 140.11 94.84 139.06 95.2 138.06 95.69 137.14 96.31 136.3 97.04 135.57 97.88 134.95 98.8 134.46 99.8 134.1 100.85 133.88 101.94 133.81 103.06 133.81 125.31 133.81 126.45 133.77 133.38 133.81 133.82 133.81 162.24 138.06 163.05 141.63 163.05 138.63 163.06 174.18 163.06 177.18 163.05 177.75 163.05 182 162.24 182 133.82 182 125.31"/></g></g><g id="Layer_4" data-name="Layer 4"><g id="LINE-6" data-name="LINE"><polygon points="630.01 105.61 629.68 105.17 629.24 104.83 628.72 104.62 628.17 104.55 627.62 104.62 627.11 104.83 626.67 105.17 626.33 105.61 626.12 106.13 626.05 106.68 626.12 107.23 626.33 107.74 626.67 108.18 627.11 108.52 627.62 108.73 628.17 108.8 628.72 108.73 629.24 108.52 629.68 108.18 630.01 107.74 630.23 107.23 630.3 106.68 630.23 106.13 630.01 105.61"/></g><g id="LINE-7" data-name="LINE"><polygon class="cls-4" points="629.37 53.43 631.96 53.94 634.56 53.43 636.76 51.96 638.23 49.76 638.74 47.16 638.23 44.57 636.76 42.37 634.56 40.9 631.96 40.38 629.37 40.9 627.17 42.37 625.7 44.57 625.18 47.16 625.7 49.76 627.17 51.96 629.37 53.43"/></g><g id="LINE-8" data-name="LINE"><polygon class="cls-5" points="509.11 106.81 508.59 104.21 507.12 102.01 504.92 100.55 502.33 100.03 499.73 100.55 497.53 102.01 496.06 104.21 495.55 106.81 496.06 109.4 497.53 111.6 499.73 113.07 502.33 113.59 504.92 113.07 507.12 111.6 508.59 109.4 509.11 106.81"/></g><g id="LINE-9" data-name="LINE"><polygon class="cls-5" points="164.7 106.81 164.18 104.21 162.71 102.01 160.51 100.55 157.92 100.03 155.32 100.55 153.13 102.01 151.66 104.21 151.14 106.81 151.66 109.4 153.13 111.6 155.32 113.07 157.92 113.59 160.51 113.07 162.71 111.6 164.18 109.4 164.7 106.81"/></g><g id="LINE-10" data-name="LINE"><polygon points="32.6 104.62 32.05 104.55 31.5 104.62 30.98 104.83 30.54 105.17 30.21 105.61 29.99 106.13 29.92 106.68 29.99 107.23 30.21 107.74 30.54 108.18 30.98 108.52 31.5 108.73 32.05 108.8 32.6 108.73 33.11 108.52 33.55 108.18 33.89 107.74 34.1 107.23 34.17 106.68 34.1 106.13 33.89 105.61 33.55 105.17 33.11 104.83 32.6 104.62"/></g><g id="LINE-11" data-name="LINE"><polygon class="cls-4" points="25.59 53.43 28.18 53.94 30.78 53.43 32.98 51.96 34.45 49.76 34.96 47.16 34.45 44.57 32.98 42.37 30.78 40.9 28.18 40.38 25.59 40.9 23.39 42.37 21.92 44.57 21.4 47.16 21.92 49.76 23.39 51.96 25.59 53.43"/></g></g></svg>