<?xml version="1.0" encoding="UTF-8" ?>
<!DOCTYPE svg PUBLIC "-//W3C//DTD SVG 1.1//EN" "http://www.w3.org/Graphics/SVG/1.1/DTD/svg11.dtd">
<svg width="1104pt" height="1104pt" viewBox="0 0 1104 1104" version="1.1" xmlns="http://www.w3.org/2000/svg">
<g id="#81317bff">
<path fill="#81317b" opacity="1.00" d=" M 342.96 169.98 C 423.82 124.27 520.36 107.50 612.18 120.48 C 705.57 132.98 794.41 177.35 860.59 244.42 C 907.39 290.89 942.92 348.49 964.28 410.85 C 991.15 488.57 994.78 573.91 975.68 653.82 C 974.64 657.98 973.94 662.31 971.85 666.12 C 970.44 661.47 965.99 657.15 960.81 658.67 C 945.71 663.19 930.63 667.81 915.71 672.93 C 922.76 648.02 929.68 622.88 932.29 597.04 C 944.36 497.94 915.47 394.70 853.77 316.21 C 813.65 264.87 760.27 223.99 700.14 198.86 C 611.62 161.28 508.91 159.16 418.87 192.90 C 400.86 199.41 383.60 207.76 366.64 216.62 C 362.40 203.18 358.07 189.77 353.71 176.37 C 352.56 171.48 347.35 170.08 342.96 169.98 Z" />
<path fill="#81317b" opacity="1.00" d=" M 220.83 269.59 C 244.81 239.26 274.41 213.12 306.75 191.92 C 304.36 198.83 307.71 205.63 309.78 212.12 C 313.23 223.95 317.53 235.49 320.91 247.34 C 292.72 266.89 269.59 292.75 248.09 319.26 C 243.19 304.61 238.80 289.78 233.87 275.15 C 232.15 269.57 225.79 268.73 220.83 269.59 Z" />
<path fill="#81317b" opacity="1.00" d=" M 118.32 595.99 C 108.46 495.99 133.00 391.82 190.66 309.06 C 195.42 332.49 204.63 354.84 211.49 377.74 C 187.80 421.75 174.57 471.24 170.24 520.95 C 163.38 604.27 184.76 689.62 230.31 759.75 C 266.34 815.37 316.87 861.98 376.14 891.81 C 380.05 894.96 385.07 896.14 390.02 895.15 C 388.24 895.54 386.43 895.82 384.64 896.16 C 434.34 920.75 489.76 934.04 545.20 934.81 C 551.57 934.85 557.53 932.31 563.51 930.41 C 672.08 896.06 780.55 861.44 889.07 826.98 C 877.09 844.51 861.03 859.03 845.89 873.88 C 802.30 913.69 750.54 944.59 694.71 963.80 C 590.52 1000.38 472.47 994.74 372.01 949.03 C 313.96 922.93 262.16 883.54 220.70 835.32 C 163.28 768.43 126.99 683.73 118.32 595.99 Z" />
<path fill="#81317b" opacity="1.00" d=" M 885.63 737.68 C 908.97 729.41 933.27 723.66 956.12 714.18 C 950.74 730.93 942.01 746.38 933.95 761.96 C 931.78 765.38 930.46 769.48 927.31 772.16 C 925.91 766.28 920.18 761.53 914.01 763.82 C 895.89 769.56 877.75 775.27 859.65 781.10 C 867.31 766.15 879.41 753.47 885.63 737.68 Z" />
</g>
<g id="#ffb177ff">
<path fill="#ffb177" opacity="1.00" d=" M 306.75 191.92 C 318.21 183.71 330.29 176.12 342.96 169.98 C 347.35 170.08 352.56 171.48 353.71 176.37 C 358.07 189.77 362.40 203.18 366.64 216.62 C 436.76 434.76 505.45 653.43 575.24 871.70 C 669.97 841.23 764.86 811.32 859.65 781.10 C 877.75 775.27 895.89 769.56 914.01 763.82 C 920.18 761.53 925.91 766.28 927.31 772.16 C 916.75 791.72 904.11 810.56 889.07 826.98 C 780.55 861.44 672.08 896.06 563.51 930.41 C 557.53 932.31 551.57 934.85 545.20 934.81 C 542.46 933.38 539.56 931.64 538.34 928.66 C 524.13 885.87 511.77 842.47 497.29 799.77 C 438.76 615.51 380.24 431.28 320.91 247.34 C 317.53 235.49 313.23 223.95 309.78 212.12 C 307.71 205.63 304.36 198.83 306.75 191.92 Z" />
<path fill="#ffb177" opacity="1.00" d=" M 591.30 268.30 C 592.42 268.26 593.55 268.23 594.70 268.22 C 613.63 309.10 631.06 350.89 654.55 389.44 C 664.76 405.60 676.84 421.87 694.40 430.52 C 724.56 444.57 758.34 434.22 789.89 433.10 C 789.71 434.36 790.25 436.10 788.75 436.75 C 765.69 450.07 740.41 461.17 721.96 480.97 C 706.83 497.67 703.77 521.34 704.83 543.00 C 707.25 589.96 717.98 635.93 726.30 682.06 C 725.02 682.57 723.67 682.83 722.31 682.91 C 701.26 638.05 682.88 591.37 654.61 550.39 C 642.05 531.98 622.88 516.79 599.98 514.94 C 576.24 512.89 552.52 516.88 528.96 519.30 C 526.29 518.55 527.61 515.21 529.66 514.63 C 547.10 504.97 564.93 495.84 581.09 484.08 C 593.67 474.78 604.38 462.13 608.66 446.83 C 612.58 432.62 613.13 417.67 612.14 403.03 C 609.54 364.12 601.38 325.89 594.33 287.61 C 593.28 281.19 591.01 274.87 591.30 268.30 Z" />
<path fill="#ffb177" opacity="1.00" d=" M 220.83 269.59 C 225.79 268.73 232.15 269.57 233.87 275.15 C 238.80 289.78 243.19 304.61 248.09 319.26 C 302.87 490.47 357.88 661.56 412.35 832.90 C 429.18 827.30 446.07 821.86 463.18 817.20 C 468.16 815.43 474.37 817.69 476.07 822.93 C 479.69 832.33 482.18 842.13 485.41 851.66 C 487.39 857.04 486.34 865.34 479.87 866.91 C 449.90 876.26 419.83 885.28 390.02 895.15 C 385.07 896.14 380.05 894.96 376.14 891.81 C 321.07 720.50 266.16 549.16 211.49 377.74 C 204.63 354.84 195.42 332.49 190.66 309.06 C 199.63 295.15 209.48 281.67 220.83 269.59 Z" />
<path fill="#ffb177" opacity="1.00" d=" M 960.81 658.67 C 965.99 657.15 970.44 661.47 971.85 666.12 C 968.73 682.66 962.54 698.62 956.12 714.18 C 933.27 723.66 908.97 729.41 885.63 737.68 C 792.78 766.95 700.07 796.59 607.39 826.40 C 602.09 828.67 594.49 827.76 592.18 821.75 C 588.15 811.97 586.06 801.51 582.35 791.61 C 580.79 787.07 581.19 780.52 586.00 778.13 C 695.72 742.54 805.69 707.64 915.71 672.93 C 930.63 667.81 945.71 663.19 960.81 658.67 Z" />
</g>
</svg>
